<svg width="18" height="17" viewBox="0 0 18 17" fill="none" xmlns="http://www.w3.org/2000/svg">
<path d="M8.80966 0.517702C8.86927 0.332885 9.13075 0.332885 9.19035 0.517701L10.9821 6.07338C11.0088 6.15615 11.0859 6.21218 11.1729 6.21199L17.0103 6.19923C17.2045 6.19881 17.2853 6.4475 17.128 6.56129L12.3979 9.98213C12.3274 10.0331 12.2979 10.1238 12.325 10.2064L14.141 15.7542C14.2014 15.9388 13.9899 16.0925 13.833 15.978L9.11792 12.5365C9.04767 12.4852 8.95234 12.4852 8.8821 12.5365L4.16701 15.978C4.01015 16.0925 3.79861 15.9388 3.85902 15.7542L5.67502 10.2064C5.70208 10.1238 5.67262 10.0331 5.60215 9.98213L0.872061 6.56129C0.714709 6.4475 0.795511 6.19881 0.989701 6.19923L6.82714 6.21199C6.91411 6.21218 6.99123 6.15615 7.01793 6.07338L8.80966 0.517702Z" fill="#FF7622"/>
</svg>
