<svg width="24" height="24" viewBox="0 0 24 24" fill="none" xmlns="http://www.w3.org/2000/svg">
<path d="M11.9998 2.14673C13.2542 2.14673 14.3393 2.57041 15.032 3.19263C15.7202 3.81101 16.0066 4.60404 15.7566 5.40454L15.655 5.73071L15.9822 5.82446C16.5914 5.9996 17.0377 6.56202 17.0378 7.22485C17.0378 7.85271 16.6381 8.39092 16.0779 8.59497L15.8435 8.67993L15.8591 8.92993C15.9373 10.1469 16.3263 11.6477 16.821 13.1799C17.3174 14.7172 17.9291 16.313 18.4646 17.7209C19.222 19.7138 17.7476 21.8528 15.615 21.8528H8.38452C6.25262 21.8528 4.77737 19.7144 5.53491 17.7209C6.05672 16.3489 6.66812 14.7579 7.16772 13.2141C7.66571 11.6753 8.06161 10.1561 8.14038 8.92993L8.15601 8.67993L7.92163 8.59497C7.3614 8.39089 6.96167 7.85267 6.96167 7.22485C6.96179 6.56202 7.40815 5.99956 8.01733 5.82446L8.34448 5.73071L8.24292 5.40454C7.99304 4.60419 8.2794 3.81103 8.96753 3.19263C9.6601 2.57039 10.7452 2.14674 11.9998 2.14673ZM11.8494 13.7649L6.7019 16.3752L6.58569 16.4338L6.53979 16.5549C6.37474 16.9933 6.21616 17.4101 6.0271 17.9075C5.39924 19.5592 6.61576 21.3254 8.38452 21.3254H15.615C17.382 21.3254 18.6009 19.5608 17.9724 17.9075C17.7931 17.4357 17.6272 16.9998 17.4597 16.5549L17.4138 16.4338L17.2986 16.3752L12.1501 13.7649L11.9998 13.6877L11.8494 13.7649ZM8.66479 8.99341C8.55258 10.659 7.91392 12.7653 7.14526 14.9143L6.86304 15.7024L7.60913 15.3245L11.8806 13.1575C11.9554 13.1195 12.044 13.1195 12.1189 13.1575L16.3904 15.3245L17.1365 15.7024L16.8542 14.9143C16.0856 12.7654 15.4479 10.659 15.3357 8.99341L15.3142 8.68188H8.6853L8.66479 8.99341ZM8.4187 6.29517C7.90561 6.29518 7.48916 6.71179 7.48901 7.22485C7.48901 7.73804 7.90552 8.1555 8.4187 8.15552H15.5808C16.094 8.15552 16.5115 7.73805 16.5115 7.22485C16.5113 6.71178 16.0939 6.29517 15.5808 6.29517H8.4187ZM12.9304 2.75708L12.6414 2.71802C12.2142 2.66003 11.7852 2.66002 11.3582 2.71802L11.0701 2.75708V3.6438C11.0701 3.78923 10.9518 3.90732 10.8064 3.90747C10.6609 3.90747 10.5427 3.78932 10.5427 3.6438V2.86841L10.0662 3.09497C9.57865 3.32749 9.13522 3.6725 8.88647 4.10376C8.62649 4.55452 8.58895 5.08914 8.91284 5.6106L9.0105 5.76782H14.989L15.0867 5.6106C15.3958 5.1128 15.3785 4.58894 15.1306 4.13501C14.8925 3.69901 14.4528 3.34269 13.9333 3.09497L13.4568 2.86841V3.6438C13.4568 3.78932 13.3386 3.90747 13.1931 3.90747C13.0478 3.90727 12.9304 3.7892 12.9304 3.6438V2.75708Z" fill="#FB6D3A" stroke="#FB6D3A" stroke-width="0.666667"/>
<path d="M9.61271 18.5648C9.94234 18.5648 10.2096 18.2976 10.2096 17.9679C10.2096 17.6383 9.94234 17.3711 9.61271 17.3711C9.28309 17.3711 9.01587 17.6383 9.01587 17.9679C9.01587 18.2976 9.28309 18.5648 9.61271 18.5648Z" fill="#FB6D3A"/>
<path d="M11.4032 16.7745C11.7329 16.7745 12.0001 16.5073 12.0001 16.1777C12.0001 15.848 11.7329 15.5808 11.4032 15.5808C11.0736 15.5808 10.8064 15.848 10.8064 16.1777C10.8064 16.5073 11.0736 16.7745 11.4032 16.7745Z" fill="#FB6D3A"/>
<path d="M12.5968 19.162C12.9265 19.162 13.1937 18.8947 13.1937 18.5651C13.1937 18.2355 12.9265 17.9683 12.5968 17.9683C12.2672 17.9683 12 18.2355 12 18.5651C12 18.8947 12.2672 19.162 12.5968 19.162Z" fill="#FB6D3A"/>
</svg>
